<?xml version="1.0" encoding="UTF-8" standalone="no"?>
<!-- Created with Inkscape (http://www.inkscape.org/) -->

<svg
   version="1.1"
   id="svg1"
   width="512"
   height="512"
   viewBox="0 0 512 512"
   sodipodi:docname="favicon.svg"
   inkscape:version="1.3 (0e150ed6c4, 2023-07-21)"
   xmlns:inkscape="http://www.inkscape.org/namespaces/inkscape"
   xmlns:sodipodi="http://sodipodi.sourceforge.net/DTD/sodipodi-0.dtd"
   xmlns="http://www.w3.org/2000/svg"
   xmlns:svg="http://www.w3.org/2000/svg">
  <defs
     id="defs1" />
  <sodipodi:namedview
     id="namedview1"
     pagecolor="#ffffff"
     bordercolor="#000000"
     borderopacity="0.25"
     inkscape:showpageshadow="2"
     inkscape:pageopacity="0.0"
     inkscape:pagecheckerboard="0"
     inkscape:deskcolor="#d1d1d1"
     inkscape:zoom="0.59524028"
     inkscape:cx="176.39935"
     inkscape:cy="191.5193"
     inkscape:window-width="935"
     inkscape:window-height="1010"
     inkscape:window-x="0"
     inkscape:window-y="0"
     inkscape:window-maximized="1"
     inkscape:current-layer="g1" />
  <g
     inkscape:groupmode="layer"
     inkscape:label="Image"
     id="g1">
    <g
       id="g9"
       transform="translate(-1.1353131,-1.6996817)">
      <path
         style="fill:#fd7d7e"
         d="m 60.5,404.93966 c -2.2,-0.45109 -7.375,-1.33539 -11.5,-1.96511 -4.125,-0.62972 -9.75,-1.5701 -12.5,-2.08974 -2.75,-0.51963 -7.475,-1.41298 -10.5,-1.98522 -3.025,-0.57224 -7.075,-1.40974 -9,-1.86111 -1.925,-0.45138 -6.3125,-1.41251 -9.75,-2.13586 C 3.8125,394.17928 1,393.25714 1,392.85342 1,391.33914 120.56273,246.43618 179.93069,176 256.05305,85.685832 312.94756,22.843996 288.57395,56 262.92515,90.890662 173.45702,231.95145 73.086713,395.75 69.632241,401.3875 66.287037,405.94596 65.652927,405.87991 65.018817,405.81386 62.7,405.39075 60.5,404.93966 Z"
         id="path11" />
      <path
         style="fill:#7e79f9"
         d="m 65.523738,466.81679 c -39.067642,-1.0621 -36.880754,2.24884 -18.514451,-28.03082 8.435542,-13.90728 16.373626,-27.11044 17.640186,-29.34034 2.302837,-4.05437 2.302837,-4.05437 9.076682,-3.26278 C 100.90335,409.35876 179.51019,416.32676 229.5,419.99121 398.56445,432.38432 437.10668,423.23495 452.72854,367 c 1.9696,-7.09009 2.23496,-35.75683 0.41655,-45 C 442.63547,268.57846 415.45104,211.12059 363.48894,132.5 340.02394,96.996575 301.90634,45 299.34452,45 c -0.2618,0 -1.45892,0.523674 -2.66026,1.16372 -1.97451,1.051972 -2.05247,1.003959 -0.81182,-0.5 2.81954,-3.417932 5.0807,-1.612239 26.40506,21.08628 107.94817,114.90445 170.64325,207.6255 185.71821,274.6625 1.12395,4.99813 2.48472,11.00646 3.02392,13.35185 1.22292,5.31937 1.28932,26.34182 0.093,29.4386 -0.48806,1.26338 -1.44727,4.77205 -2.13157,7.79705 -7.36143,32.54151 -39.75201,53.98878 -91.98104,60.9048 -92.44178,12.24088 -222.94313,17.40633 -351.476262,13.91199 z"
         id="path10" />
      <path
         style="fill:#7e3ebd"
         d="M 305,424.44914 C 247.15822,421.82951 167.21831,415.68599 91.5,408.0413 86,407.48601 78.4625,406.73794 74.75,406.37893 66.253661,405.5573 65.369176,408.28634 83.889362,378.17985 222.19752,153.34558 292.26063,45 299.34452,45 c 0.73163,0 12.34915,14.347628 20.64778,25.5 70.87561,95.24834 117.81639,181.50639 130.87773,240.5 14.17411,64.01956 -9.83579,103.03319 -68.87003,111.90674 -21.50165,3.23196 -34.11553,3.48463 -77,1.5424 z"
         id="path9" />
    </g>
  </g>
</svg>
